<svg xmlns="http://www.w3.org/2000/svg" viewBox="0 0 64 64" width="64" height="64"><defs><linearGradient id="bBody" x1="0" y1="0" x2="0" y2="1"><stop offset="0" stop-color="#1d4d82"></stop><stop offset="1" stop-color="#07203B"></stop></linearGradient></defs><g stroke-linejoin="round" fill="none"><path d="M10 24c4-8.5 12.5-12.5 22-12.5S50.4 15.5 54 24l-3.4 5.2C47.4 22 40.4 18 32 18s-15.4 4-18.6 11.2z" fill="url(#bBody)" stroke="#c8a96a" stroke-width="1.6"></path><path d="M21 19.5l-1.2 5M27 18l-.5 5.4M37 18l.5 5.4M43 19.5l1.2 5" stroke="#ffffff" stroke-width="1.1" opacity="0.5"></path><g fill="#c8a96a" stroke="#c8a96a" stroke-width="0.8"><path d="M15 33h4.4l-1 11c-.1 1.4-.7 2.3-1.2 2.3s-1.1-.9-1.2-2.3z"></path><path d="M26 35.5h4.4l-.9 12c-.1 1.5-.7 2.4-1.3 2.4s-1.2-.9-1.3-2.4z"></path><path d="M33.6 35.5H38l-.9 12c-.1 1.5-.7 2.4-1.3 2.4s-1.2-.9-1.3-2.4z"></path><path d="M44.6 33H49l-1 11c-.1 1.4-.7 2.3-1.2 2.3s-1.1-.9-1.2-2.3z"></path></g></g></svg>