<svg xmlns="http://www.w3.org/2000/svg" viewBox="0 0 64 64" width="64" height="64"><defs><linearGradient id="bBody" x1="0" y1="0" x2="0" y2="1"><stop offset="0" stop-color="#1d4d82"></stop><stop offset="1" stop-color="#07203B"></stop></linearGradient></defs><g stroke-linejoin="round" fill="none"><path d="M32 12c-6.5 0-11 3.8-13.3 9C16.8 25.6 16.8 32.4 18 40c1 6.2 2.7 12 6 12 2.4 0 3.2-3.8 4-8.4.5-2.8.8-5 2-5s1.5 2.2 2 5c.8 4.6 1.6 8.4 4 8.4 3.3 0 5-5.8 6-12 1.2-7.6 1.2-14.4-.7-19C43 15.8 38.5 12 32 12z" fill="url(#bBody)" stroke="#c8a96a" stroke-width="1.6"></path><path d="M23 23c4-2.6 13-2.6 17 0 1 4.2.2 9.6-2 12.2-3.4-2.2-9.6-2.2-13 0-2.2-2.6-3-8-2-12.2z" fill="#c8a96a" stroke="none" opacity="0.9"></path><path d="M44 11l5 5-2.4 2.4-5-5z" fill="#c8a96a" stroke="none"></path><circle cx="40.5" cy="20.5" r="1.6" fill="#c8a96a" stroke="none"></circle></g></svg>