<svg xmlns="http://www.w3.org/2000/svg" viewBox="0 0 64 64" width="64" height="64"><defs><linearGradient id="bBody" x1="0" y1="0" x2="0" y2="1"><stop offset="0" stop-color="#1d4d82"></stop><stop offset="1" stop-color="#07203B"></stop></linearGradient></defs><g stroke-linejoin="round" fill="none"><path d="M11 25c5.5 9.5 13 14.5 21 14.5S47.5 34.5 53 25l-2.6-3.4C45.8 30 39.4 33.6 32 33.6S18.2 30 13.6 21.6z" fill="url(#bBody)" stroke="#c8a96a" stroke-width="1.6"></path><path d="M22 23.8l-.6 5.6M27 25.4l-.3 6.4M32 26v6.8M37 25.4l.3 6.4M42 23.8l.6 5.6" stroke="#ffffff" stroke-width="1" opacity="0.45"></path><path d="M50 11l1.2 3 3 1.2-3 1.2L50 20.6l-1.2-3.2-3-1.2 3-1.2z" fill="#c8a96a" stroke="none"></path><path d="M14 14l.9 2.2 2.2.9-2.2.9L14 21l-.9-2-2.2-.9 2.2-.9z" fill="#c8a96a" stroke="none" opacity="0.8"></path></g></svg>