<svg xmlns="http://www.w3.org/2000/svg" viewBox="0 0 64 64" width="64" height="64"><defs><linearGradient id="bBody" x1="0" y1="0" x2="0" y2="1"><stop offset="0" stop-color="#1d4d82"></stop><stop offset="1" stop-color="#07203B"></stop></linearGradient></defs><g stroke-linejoin="round" fill="none"><path d="M32 6c-5.2 0-8.8 3-10.5 7.2-1.3 3.2-1.4 7.2-.6 11 .3 1.4 1.9 1.4 2.3 0 .7-2.6.9-4.4 1.8-4.4s1.1 1.8 1.8 4.4c.4 1.4 2 1.4 2.3 0 .8-3.8.7-7.8-.6-11C40.8 9 37.2 6 32 6z" fill="url(#bBody)" stroke="#c8a96a" stroke-width="1.6"></path><path d="M27 26h10l-1.2 6.5H28.2z" fill="url(#bBody)" stroke="#c8a96a" stroke-width="1.6"></path><path d="M28.4 34.5h7.2l-1.1 17.8c-.16 2.7-1.3 4.2-2.5 4.2s-2.34-1.5-2.5-4.2z" fill="#c8a96a" stroke="#c8a96a" stroke-width="1.2"></path><path d="M29.4 40.5h5.2M29.6 45h4.8M30 49.6h4" stroke="#ffffff" stroke-width="1.3" stroke-linecap="round" opacity="0.55"></path></g></svg>