<svg xmlns="http://www.w3.org/2000/svg" viewBox="0 0 64 64" width="64" height="64"><defs><linearGradient id="bBody" x1="0" y1="0" x2="0" y2="1"><stop offset="0" stop-color="#1d4d82"></stop><stop offset="1" stop-color="#07203B"></stop></linearGradient></defs><g stroke-linejoin="round" fill="none"><path d="M30 14c-6 0-10.2 3.6-12.4 8.6C15.7 27 15.7 33.4 16.8 40.4c.9 5.8 2.5 11.6 5.6 11.6 2.2 0 3-4 3.7-8.2.5-2.6.7-4.6 1.9-4.6s1.4 2 1.9 4.6c.7 4.2 1.5 8.2 3.7 8.2 3 0 4.6-5.8 5.5-11.6.5-3.2.7-6.4.3-9.2" fill="url(#bBody)" stroke="#c8a96a" stroke-width="1.6"></path><path d="M43 14l9 9" stroke="#c8a96a" stroke-width="2.4" stroke-linecap="round"></path><circle cx="53" cy="12" r="2.6" fill="#c8a96a" stroke="none"></circle><path d="M22 50.5c4 2.6 14 2.6 18 0" stroke="#c8a96a" stroke-width="1.3" stroke-dasharray="2 3" opacity="0.8"></path></g></svg>