<svg xmlns="http://www.w3.org/2000/svg" viewBox="0 0 64 64" width="64" height="64"><defs><linearGradient id="bBody" x1="0" y1="0" x2="0" y2="1"><stop offset="0" stop-color="#1d4d82"></stop><stop offset="1" stop-color="#07203B"></stop></linearGradient></defs><g stroke-linejoin="round" fill="none"><circle cx="32" cy="33" r="16" stroke="#c8a96a" stroke-width="1.3" stroke-dasharray="3 4" opacity="0.85"></circle><path d="M15 23v-4h4M49 23v-4h-4M15 43v4h4M49 43v4h-4" stroke="#c8a96a" stroke-width="1.6"></path><path d="M32 9v5M32 52v5M9 33h5M50 33h5" stroke="#c8a96a" stroke-width="1.4"></path><path d="M32 18c-3.4 0-5.8 2-7 4.8-.9 2.2-1 5-.4 7.6.2 1 1.3 1 1.6 0 .5-1.8.6-3 1.2-3s.7 1.2 1.2 3c.3 1 1.4 1 1.6 0 .6-2.6.5-5.4-.4-7.6C37.8 20 35.4 18 32 18z" fill="url(#bBody)" stroke="#c8a96a" stroke-width="1.4"></path><path d="M29.4 31h5.2l-.8 11c-.1 1.7-.9 2.7-1.8 2.7s-1.7-1-1.8-2.7z" fill="#c8a96a" stroke="none"></path></g></svg>