<svg xmlns="http://www.w3.org/2000/svg" viewBox="0 0 64 64" width="64" height="64"><defs><linearGradient id="bBody" x1="0" y1="0" x2="0" y2="1"><stop offset="0" stop-color="#1d4d82"></stop><stop offset="1" stop-color="#07203B"></stop></linearGradient></defs><g stroke-linejoin="round" fill="none"><path d="M30 12c-6.5 0-11 3.8-13.3 9C14.8 25.6 14.8 32.4 16 40c1 6.2 2.7 12 6 12 2.4 0 3.2-3.8 4-8.4.5-2.8.8-5 2-5s1.5 2.2 2 5c.8 4.6 1.6 8.4 4 8.4 3.3 0 5-5.8 6-12 .5-3.1.8-6.2.6-9" fill="url(#bBody)" stroke="#c8a96a" stroke-width="1.6"></path><path d="M23 19c-1.3 5-1.3 11.6.4 17.4" stroke="#ffffff" stroke-width="1.3" opacity="0.5"></path><path d="M46 13l1.4 3.6 3.6 1.4-3.6 1.4L46 23l-1.4-3.6-3.6-1.4 3.6-1.4z" fill="#c8a96a" stroke="none"></path><path d="M42 28l.9 2.3 2.3.9-2.3.9L42 35l-.9-2.3-2.3-.9 2.3-.9z" fill="#c8a96a" stroke="none" opacity="0.75"></path></g></svg>