<svg xmlns="http://www.w3.org/2000/svg" viewBox="0 0 64 64" width="64" height="64"><defs><linearGradient id="bBody" x1="0" y1="0" x2="0" y2="1"><stop offset="0" stop-color="#1d4d82"></stop><stop offset="1" stop-color="#07203B"></stop></linearGradient></defs><g stroke-linejoin="round" fill="none"><path d="M36 11c-6.5 0-11 3.8-13.3 9C20.8 24.6 20.8 31.4 22 39c1 6.2 2.7 13 6 13 2.4 0 3.2-4.4 4-9 .5-2.8.8-5 2-5s1.5 2.2 2 5c.8 4.6 1.6 9 4 9 3.3 0 5-6.8 6-13 1.2-7.6 1.2-14.4-.7-19C47 14.8 42.5 11 36 11z" fill="url(#bBody)" stroke="#c8a96a" stroke-width="1.2" opacity="0.32"></path><path d="M27 9c-4.4 0-7.4 2.6-9 6.2-1.5 3.5-1.5 8.4-.5 13.5.7 4.2 1.9 8.9 4.2 8.9 1.6 0 2.2-3 2.8-6.1.4-1.9.6-3.4 1.5-3.4s1.1 1.5 1.5 3.4c.6 3.1 1.2 6.1 2.8 6.1 2.3 0 3.5-4.7 4.2-8.9 1-5.1 1-10-.5-13.5C34.4 11.6 31.4 9 27 9z" fill="url(#bBody)" stroke="#c8a96a" stroke-width="1.6"></path><path d="M22 15c-1.1 5.5-1.1 13 .6 19.5" stroke="#ffffff" stroke-width="1.3" opacity="0.5"></path><path d="M46 12l1.4 3.6 3.6 1.4-3.6 1.4L46 22l-1.4-3.6-3.6-1.4 3.6-1.4z" fill="#c8a96a" stroke="none"></path></g></svg>